<?xml version="1.0" encoding="UTF-8" standalone="no"?>
<svg width="560px" height="484px" viewBox="0 0 560 484" version="1.1" xmlns="http://www.w3.org/2000/svg" xmlns:xlink="http://www.w3.org/1999/xlink">
    <!-- Generator: Sketch 44.1 (41455) - http://www.bohemiancoding.com/sketch -->
    <title>warplabs-logo</title>
    <desc>Created with Sketch.</desc>
    <defs></defs>
    <g id="Page-1" stroke="none" stroke-width="1" fill="none" fill-rule="evenodd">
        <g id="warplabs-logo" fill-rule="nonzero">
            <path d="M422.4,0.9 C416.8,3.1 401.5,10.1 390.5,24.2 C376.9,41.8 367.1,83.3 367.1,83.3 L350.3,92.8 C346.9,94.7 344.8,98.2 344.6,102.1 L343.1,133.8 C342.9,137.4 344.8,140.9 347.9,142.7 L350.9,144.5 L358.8,134.7 C360.4,132.7 363.1,132 365.5,132.9 C368.3,134 372.1,135.5 375.9,136.9 C379.8,138.1 383.7,139.2 386.5,140.1 C389,140.8 390.7,143.1 390.7,145.6 L391,158.2 L394.4,158.6 C398,159 401.6,157.4 403.6,154.5 L421.8,128.5 C424,125.3 424.5,121.2 423,117.6 L415.6,99.8 C415.6,99.8 433.2,61 433.2,38.8 C433.3,21 425.4,6.1 422.4,0.9 Z M400.6,64.8 C393.4,62.3 389.5,54.4 391.9,47.1 L391.9,47.1 C394.4,39.9 402.3,36 409.6,38.4 C416.8,40.9 420.7,48.8 418.3,56.1 L418.3,56.1 C415.7,63.4 407.8,67.3 400.6,64.8 Z" id="Shape" fill="#FFF"></path>
            <circle id="Oval" fill="#FFF" cx="433.3" cy="223.7" r="8.8"></circle>
            <circle id="Oval" fill="#FFF" cx="403.2" cy="227.3" r="3.5"></circle>
            <circle id="Oval" fill="#FFF" cx="306.5" cy="157.2" r="17.1"></circle>
            <circle id="Oval" fill="#FFF" cx="264.2" cy="182.3" r="3.9"></circle>
            <path d="M101.4,207.9 C100.8,209.1 100.3,210.3 99.8,211.5 L101.3,211 L101.4,207.9 Z" id="Shape" fill="#FFF"></path>
            <path d="M505,306.4 L495.9,290.7 L508.8,277.9 C514.9,271.8 518.3,263.7 518.3,255.1 C518.3,254.5 518.3,253.8 518.2,253.2 C517.7,253.2 517.1,253.1 516.6,253.1 C508.5,253.1 501.3,256.6 496.3,262.3 C488.8,256.6 479.4,253.1 469.2,253.1 C457.9,253.1 447.5,257.3 439.7,264.3 C432.1,251.4 418.9,242.2 403.1,240.3 C385.6,238.9 379,243.6 379,243.6 C382.8,238.2 388,235.4 392.3,234.1 C389.6,227.2 384.8,221.1 378.5,216.8 C380.5,208.5 376.4,199.8 368.7,196.1 L378,149.2 L367.4,145.6 L348.9,189.4 C341.9,187.9 334.7,190.7 330.6,196.3 C336.8,198 345.8,202.1 350.3,212 C337.3,197.2 313.7,197.4 302.1,208.5 C297.4,204.3 291.7,201 285.4,198.8 C275.7,195.5 265.7,195.4 256.6,197.9 C249.2,180.7 232.1,168.7 212.2,168.7 C197.6,168.7 184.6,175.1 175.7,185.3 C167.9,180.9 158.9,178.3 149.3,178.3 C128.4,178.3 110.4,190.3 101.7,207.8 L101.6,210.9 L100.1,211.4 L85.8,216.1 C59.8,224.6 42.3,248.7 42.3,276.1 C42.3,310.9 70.6,339.2 105.4,339.2 C114.8,339.2 123.9,337.2 132.3,333.2 L152.2,323.8 L163,343 C172.3,359.4 203,376.1 244,376.1 C251.2,376.1 258.4,375.6 265.5,374.5 L286.2,371.4 L291.8,391.6 C299.9,421.1 327,441.8 357.7,441.8 C384.5,441.8 408.9,426 420,401.5 L427.8,384.2 L446.3,388 C450,388.8 453.7,389.1 457.5,389.1 C487.9,389.1 512.7,364.3 512.7,333.9 C512.7,328 511.7,322.2 509.9,316.7 C508.4,313.2 506.8,309.7 505,306.4 Z M105,284.8 C98.9,284.8 93.9,279.8 93.9,273.7 C93.9,267.6 98.9,262.6 105,262.6 C111.1,262.6 116.1,267.6 116.1,273.7 C116.1,279.8 111.1,284.8 105,284.8 Z M216.5,257.1 C203.5,257.1 193,246.6 193,233.6 C193,220.6 203.5,210.1 216.5,210.1 C229.5,210.1 240,220.6 240,233.6 C240,246.6 229.5,257.1 216.5,257.1 Z M316,299.8 C314,305.7 307.5,308.9 301.6,306.9 C295.7,304.9 292.5,298.4 294.5,292.5 C296.5,286.6 303,283.4 308.9,285.4 C314.8,287.4 318,293.9 316,299.8 Z M337.6,333.3 C336.8,335.8 334.1,337.1 331.6,336.2 C329.1,335.4 327.8,332.7 328.7,330.2 C329.5,327.7 332.2,326.4 334.7,327.3 C337.2,328.2 338.5,330.8 337.6,333.3 Z M387.4,278.6 C384.6,286.8 375.7,291.2 367.5,288.4 C359.3,285.6 354.9,276.7 357.7,268.5 C360.5,260.3 369.4,255.9 377.6,258.7 C385.8,261.5 390.2,270.5 387.4,278.6 Z M440,341.3 C433.9,341.3 428.9,336.3 428.9,330.2 C428.9,324.1 433.9,319.1 440,319.1 C446.1,319.1 451.1,324.1 451.1,330.2 C451,336.4 446.1,341.3 440,341.3 Z" id="Shape" fill="#FFF"></path>
            <path d="M559.6,255.1 C559.6,228.4 545.3,204.3 522.8,191.3 C522.8,190.3 522.8,189.3 522.8,188.4 C522.8,140.7 489.1,100.8 444.2,91.1 C442.5,97 440.7,102.8 438.8,108.1 C476.5,115.4 505,148.5 505,188.4 C505,193.1 504.6,197.7 503.8,202.2 C525.9,209.7 541.8,230.5 541.8,255.1 C541.8,270.5 535.5,284.5 525.4,294.6 C532.1,306.2 535.9,319.6 535.9,333.9 C535.9,377.4 500.6,412.7 457.1,412.7 C451.6,412.7 446.3,412.1 441.1,411.1 C426.7,443 394.6,465.3 357.3,465.3 C315,465.3 279.3,436.7 268.6,397.8 C260.6,399 252.2,399.6 243.6,399.6 C196.7,399.6 156.8,380.8 142,354.5 C130.8,359.8 118.2,362.8 105,362.8 C57.1,362.8 18.3,324 18.3,276.1 C18.3,237.6 43.4,205 78.1,193.6 C79.5,145.3 119.1,106.6 167.7,106.6 C172.4,106.6 177,107 181.6,107.7 C195.2,85.8 219.5,71.2 247.2,71.2 C265.4,71.2 282.2,77.5 295.4,88.1 C308.8,77.5 325.8,71.2 344.2,71.2 C345.7,71.2 347.3,71.3 348.8,71.3 C350.8,65.7 353,59.8 355.6,54.1 C351.9,53.7 348.1,53.4 344.2,53.4 C326.8,53.4 310.1,57.9 295.4,66.6 C280.9,58 264.1,53.4 247.1,53.4 C217.9,53.4 190.9,66.5 173,89 C171.2,88.9 169.4,88.9 167.6,88.9 C139.5,88.9 112.9,99.7 92.7,119.3 C75.5,136.1 64.6,157.7 61.3,181.2 C24.5,198.1 0.4,234.8 0.4,276.1 C0.4,333.7 47.3,380.6 104.9,380.6 C115.4,380.6 125.7,379.1 135.5,376 C157.6,401.5 198.1,417.4 243.5,417.4 C247.8,417.4 252.1,417.2 256.5,417 C273.7,456.6 313.1,483.1 357.2,483.1 C388.7,483.1 418.1,469.5 438.6,446.9 C439.478136,445.553525 441.565462,442.786687 444.2,438.6875 C446.834538,434.588313 448.610743,431.218358 449.398438,430.430664 C450.441486,429.404715 388.8,430.427967 457.1,430.430664 C525.4,430.433361 553.7,377.8 553.7,334 C553.7,321.4 551.2,308.9 546.4,297.2 C555,284.9 559.6,270.4 559.6,255.1 Z" id="Shape" fill="#FFFFFF"></path>
        </g>
    </g>
</svg>
